<?xml version="1.0" encoding="UTF-8"?>
<!DOCTYPE svg PUBLIC "-//W3C//DTD SVG 1.1//EN" "http://www.w3.org/Graphics/SVG/1.1/DTD/svg11.dtd">
<!-- Creator: CorelDRAW 2021 (64-Bit) -->
<svg xmlns="http://www.w3.org/2000/svg" xml:space="preserve" width="183.272mm" height="157.943mm" version="1.1" style="shape-rendering:geometricPrecision; text-rendering:geometricPrecision; image-rendering:optimizeQuality; fill-rule:evenodd; clip-rule:evenodd"
viewBox="0 0 7989.45 6885.3"
 xmlns:xlink="http://www.w3.org/1999/xlink"
 xmlns:xodm="http://www.corel.com/coreldraw/odm/2003">
 <defs>
  <style type="text/css">
   <![CDATA[
    .fil6 {fill:#EC8A52}
    .fil3 {fill:#2E2E41;fill-rule:nonzero}
    .fil0 {fill:#3F3C57;fill-rule:nonzero}
    .fil5 {fill:#D6D7D8;fill-rule:nonzero}
    .fil4 {fill:#E8E9EA;fill-rule:nonzero}
    .fil2 {fill:#EC8A52;fill-rule:nonzero}
    .fil1 {fill:#FDB4B4;fill-rule:nonzero}
   ]]>
  </style>
 </defs>
 <g id="Layer_x0020_1">
  <metadata id="CorelCorpID_0Corel-Layer"/>
  <path class="fil0" d="M-0 6815.56c0,10.05 8.07,18.12 18.12,18.12l7953.21 0c10.05,0 18.12,-8.07 18.12,-18.12 0,-10.05 -8.07,-18.12 -18.12,-18.12l-7953.21 0c-10.05,0 -18.12,8.07 -18.12,18.12l0 -0z"/>
  <g id="_2076784183088">
   <polygon class="fil1" points="2594.9,731.73 2681.39,1126.4 2497.42,1675.73 2201.04,1085.52 2242.16,743.11 "/>
   <rect class="fil2" x="2185.71" y="1105.96" width="511.75" height="618.32"/>
   <circle class="fil1" cx="2487.02" cy="581.04" r="349.48"/>
   <path class="fil3" d="M2182.8 840.93c0,0 -260.51,-481.12 -25.63,-712.64 234.88,-231.53 423.43,-78.97 423.43,-78.97l107.67 -4.35c0,0 22.46,84.73 58.66,38.86 36.21,-45.87 101.64,121.18 101.64,121.18 121.44,218.71 -299.55,267.71 -299.55,267.71 0,0 30.4,96.84 -0.5,117.12 -30.9,20.28 -113.46,96.57 -113.46,96.57l-73.9 55.81 -43.91 -66.91c0,0 -45.87,-36.21 -69.04,-21 -23.17,15.21 8.7,215.34 8.7,215.34l-74.11 -28.72 0 0c0,0 0,0 0,0z"/>
   <polygon class="fil3" points="1763.54,4380.41 1629.93,6373.55 1958.4,6384.68 2392.66,4397.11 "/>
   <polygon class="fil3" points="2559.68,4369.28 2426.07,6362.41 2754.55,6373.55 3188.8,4385.98 "/>
   <path class="fil4" d="M1683.08 4835.79l174.87 -2170.8 -268.16 -1130.39c-23.12,-168.03 82.75,-327.03 246.16,-370.38l262.4 -69.61 116.14 -116.15 264.17 583.37 164.99 -582.93 128.67 93.58 381.62 168.37 -0.17 3.94 -61.21 1365.5 136.64 2206.17 -6.06 0.08 -1540.04 19.25 0 0 -0 0z"/>
   <path class="fil3" d="M2733.45 6350.9l95.11 283.94c0,0 372.1,50.59 377.89,165.79 5.79,115.2 -505.7,48.52 -805.21,63.57 -299.51,15.05 -50.19,-309.29 -50.19,-309.29l31.91 -186.38 350.49 -17.62 -0 0 0 0z"/>
   <path class="fil3" d="M1956.72 6330.46l95.11 283.94c0,0 372.1,50.59 377.89,165.79 5.79,115.2 -505.7,48.52 -805.21,63.57 -299.51,15.05 -50.19,-309.29 -50.19,-309.29l31.91 -186.38 350.49 -17.62 -0 0z"/>
   <path id="uuid-2a99fb06-c611-4846-a9cf-67468c4aeefc-54" class="fil1" d="M1492.68 3682.9c-4.03,-55.98 5.4,-112.12 27.52,-163.71l-70.98 -582.3 278.07 -25.67 42.06 593.45c27.94,48.65 43.83,103.3 46.33,159.35 8.18,140.21 -57.5,258.05 -146.7,263.25 -89.2,5.21 -168.14,-104.2 -176.29,-244.37l-0 0 0 0 0 0z"/>
   <path id="uuid-a83e19fb-8297-4073-aac4-48fd1880d45d-55" class="fil1" d="M3253.89 3768.37c-3.42,-56.02 6.63,-112.05 29.3,-163.4l-64.63 -583.05 278.33 -22.64 35.59 593.87c27.41,48.96 42.7,103.77 44.59,159.85 6.65,140.3 -60.31,257.41 -149.56,261.64 -89.25,4.23 -166.98,-106.03 -173.61,-246.27l0 -0 0 0 0 0z"/>
   <path class="fil4" d="M1448.07 3449.37l-0.94 -5.02 -144.92 -777.56 171.24 -1266.19c15.28,-113.04 116.22,-194.47 230.05,-185.37 59.44,4.76 112.78,32.95 150.19,79.4 37.41,46.44 53.59,104.57 45.57,163.66l-128.88 949.62 81.14 1015.71c0,0 -403.45,25.76 -403.45,25.76l-0 0z"/>
   <path class="fil4" d="M3168.01 3431.12l-291.37 -1944.89c-15.14,-57.03 -6.28,-116.71 25.09,-167.43 31.37,-50.72 80.8,-85.3 139.21,-97.37 111.73,-23.11 222.06,45.19 251.22,155.46l279.91 2029.8 -404.06 24.43 0 0 0 -0z"/>
   <circle class="fil5" cx="2487.2" cy="1703.84" r="35.77"/>
   <circle class="fil5" cx="2487.2" cy="1974.68" r="35.77"/>
   <circle class="fil5" cx="2487.2" cy="2245.51" r="35.77"/>
   <circle class="fil5" cx="2487.2" cy="2516.34" r="35.77"/>
   <circle class="fil5" cx="2487.2" cy="2787.18" r="35.77"/>
   <circle class="fil5" cx="2487.2" cy="3058.01" r="35.77"/>
   <circle class="fil5" cx="2487.2" cy="3328.85" r="35.77"/>
   <circle class="fil5" cx="2487.2" cy="3599.68" r="35.77"/>
   <polygon class="fil2" points="2487.25,3844.96 1810.42,3754.76 1797.39,3753.03 1451.48,2955.45 1245.48,2480.59 1782.05,2480.59 "/>
  </g>
  <polygon class="fil3" points="5200.94,818.51 5631.24,582.77 5631.24,1256.29 5133.58,1256.29 "/>
  <polygon class="fil1" points="5723.5,968.67 5763.21,1299.33 5477,1869.29 5299.35,1338.8 5382.87,957.68 "/>
  <polygon class="fil3" points="6185.7,4481.16 6314.73,6405.91 5997.52,6416.66 5578.17,4497.29 "/>
  <polygon class="fil3" points="5416.88,4470.41 5545.91,6395.15 5228.7,6405.91 4809.34,4486.54 "/>
  <path class="fil4" d="M6520.83 4889.39l-7.56 -0.02 -2020.75 -6.6 1.81 -7.15 519.53 -2058.39 -130.14 -1038.8c-24.66,-196.84 80.72,-382.89 262.21,-462.96l65.52 -28.9 124.48 -90.52 163.87 500.29 250.36 -500.73 112.33 112.32 253.33 67.22c157.91,41.89 260.21,195.52 237.96,357.36l-0.27 1.12 -386.88 1103.92 554.19 2051.85z"/>
  <path class="fil3" d="M5249.07 6384.03l338.46 17.01 30.82 179.99c0,0 240.76,313.21 -48.47,298.68 -289.23,-14.53 -783.17,49.86 -777.58,-61.38 5.59,-111.24 364.92,-160.1 364.92,-160.1l91.85 -274.19 -0 -0 0 0 0 0z"/>
  <path class="fil3" d="M5999.15 6364.29l338.46 17.01 30.82 179.99c0,0 240.76,313.21 -48.47,298.68 -289.23,-14.53 -783.17,49.86 -777.58,-61.38 5.59,-111.24 364.92,-160.1 364.92,-160.1l91.85 -274.19 0 0 0 0 0 -0z"/>
  <path id="uuid-3bc2e7c3-8a4e-432b-b93d-ff096d796d3b-56" class="fil1" d="M6309.09 3787.84l0 0c-7.88,135.36 -84.1,241.01 -170.24,235.98 -86.14,-5.03 -149.56,-118.82 -141.67,-254.22 2.42,-54.13 17.76,-106.9 44.74,-153.89l40.62 -573.08 268.53 24.79 -68.55 562.33c21.36,49.82 30.47,104.03 26.57,158.09l0 0 0 0z"/>
  <path id="uuid-a34cbb18-fa14-4c0b-8260-87fab6b8d9f9-57" class="fil1" d="M4929.16 3736.37l0 0c-10.75,135.16 -89.21,239.16 -175.22,232.31 -86.01,-6.86 -147,-121.97 -136.22,-257.18 3.57,-54.07 20.03,-106.49 48.01,-152.9l52.8 -572.09 267.94 30.5 -80.5 560.74c20.29,50.26 28.25,104.65 23.2,158.62l0 0 0 -0z"/>
  <path class="fil4" d="M6352.34 3562.53l-389.99 -24.89 0.48 -5.85 77.9 -975.19 -124.44 -917.01c-7.76,-57.12 7.89,-113.3 44.04,-158.19 36.16,-44.9 87.71,-72.15 145.18,-76.75l-0 -0.01c110.03,-8.68 207.58,69.92 222.36,179.18l165.36 1222.77 -0.17 0.91 -140.72 755.02 0 0.01z"/>
  <path class="fil4" d="M4994.09 3525.18l-390.61 -23.61 0.85 -6.17 269.35 -1953.53c28.33,-107.29 135.02,-173.29 242.97,-150.96 56.45,11.67 104.24,45.1 134.56,94.13 30.32,49.03 38.89,106.71 24.13,162.43l-281.26 1877.72z"/>
  <circle class="fil5" cx="5486.87" cy="1896.43" r="34.54"/>
  <circle class="fil5" cx="5486.87" cy="2157.97" r="34.54"/>
  <circle class="fil5" cx="5486.87" cy="2419.52" r="34.54"/>
  <circle class="fil5" cx="5486.87" cy="2681.06" r="34.54"/>
  <circle class="fil5" cx="5486.87" cy="2942.6" r="34.54"/>
  <circle class="fil5" cx="5486.87" cy="3204.14" r="34.54"/>
  <circle class="fil5" cx="5486.87" cy="3465.68" r="34.54"/>
  <circle class="fil5" cx="5486.87" cy="3727.22" r="34.54"/>
  <ellipse class="fil1" cx="5533.09" cy="810.23" rx="323.1" ry="397.27"/>
  <g id="_2076794925184">
   <path class="fil0" d="M5877.79 1695.14l-22.15 -6.46c46.13,-158.19 -53.35,-453.41 -54.35,-456.37l21.83 -7.45c4.22,12.38 102.83,305.15 54.66,470.27l0 0z"/>
   <circle class="fil0" cx="5866.72" cy="1780.48" r="96.35"/>
   <path class="fil0" d="M5233.59 2121.62l-58.44 0c-6.37,0 -11.53,-5.17 -11.53,-11.53 0,-6.37 5.16,-11.53 11.53,-11.53l58.44 0c16.11,0 31.23,-6.27 42.61,-17.67 11.36,-11.4 17.62,-26.54 17.58,-42.63l-0.71 -359.94c0,-78.19 -63.59,-141.79 -141.77,-141.79 -78.17,0 -141.78,63.59 -141.78,141.77l0.71 336.9c0.07,32.87 26.86,59.81 59.73,60.06l40.11 0.31c6.36,0.05 11.49,5.25 11.44,11.62 -0.04,6.33 -5.21,11.44 -11.53,11.44l-0.09 0 -40.11 -0.31c-45.46,-0.35 -82.53,-37.63 -82.62,-83.09l-0.71 -336.93c0,-90.91 73.95,-164.86 164.84,-164.86 90.89,0 164.84,73.95 164.84,164.84l0.71 359.92c0.04,22.27 -8.59,43.21 -24.33,58.97 -15.72,15.76 -36.66,24.45 -58.93,24.45l0 0z"/>
   <circle class="fil0" cx="5110" cy="2087.09" r="40.88"/>
   <circle class="fil0" cx="5175.16" cy="2110.09" r="40.88"/>
  </g>
  <path class="fil0" d="M2815.15 1522.25l-22.15 -6.46c46.13,-158.19 -52.23,-457.98 -53.23,-460.94l27.68 20.87c4.22,12.38 95.86,281.41 47.7,446.53z"/>
  <path class="fil0" d="M2036.71 1550.35l22.15 -6.46c-46.13,-158.19 53.35,-453.41 54.35,-456.37l-23.69 15.87c-4.22,12.38 -100.97,281.83 -52.8,446.96z"/>
  <circle class="fil0" cx="2804.07" cy="1607.59" r="96.35"/>
  <path class="fil0" d="M2139.43 2142.91l-58.44 0c-6.37,0 -11.53,-5.17 -11.53,-11.53 0,-6.37 5.16,-11.53 11.53,-11.53l58.44 0c16.11,0 31.23,-6.27 42.61,-17.67 11.36,-11.4 17.62,-26.54 17.58,-42.63l-0.71 -359.94c0,-78.19 -63.59,-141.79 -141.77,-141.79 -78.17,0 -141.78,63.59 -141.78,141.77l0.71 336.9c0.07,32.87 26.86,59.81 59.73,60.06l40.11 0.31c6.36,0.05 11.49,5.25 11.44,11.62 -0.04,6.33 -5.21,11.44 -11.53,11.44l-0.09 0 -40.11 -0.31c-45.46,-0.35 -82.53,-37.63 -82.62,-83.09l-0.71 -336.93c0,-90.91 73.95,-164.86 164.84,-164.86 90.89,0 164.84,73.95 164.84,164.84l0.71 359.92c0.04,22.27 -8.59,43.21 -24.33,58.97 -15.72,15.76 -36.66,24.45 -58.93,24.45l0 0z"/>
  <circle class="fil0" cx="2015.84" cy="2108.38" r="40.88"/>
  <circle class="fil0" cx="2080.99" cy="2131.38" r="40.88"/>
  <path class="fil6" d="M5125.51 1067.12l1.58 67.49c1.86,29.23 7.37,18.68 -6,49.8 -6.51,15.15 -9.38,40.2 -13.27,55.8 -1.88,7.56 -30.79,81.96 -38.59,85.89 -13.77,6.96 -28.33,15.67 -40.08,25.71l-13.82 12.49c-12.34,12.19 -19.32,23.34 -28.18,37.61 -2.79,4.5 -1.88,3.68 -6.12,7.03 -8.05,6.36 -16.77,9.4 -26.73,12.74l-19.45 6.86c-17.01,5.88 -33.42,13.1 -47.71,24.65l-3.57 3.01c-2.94,2.55 -4.13,3.72 -6.78,6.37 -9.31,9.34 -16.17,19.89 -23.41,30.86l-31.89 192.3c-10.64,15.95 -18.38,34.3 -28.05,50.9 -9.98,17.14 -17.62,34.99 -26.02,52.92l-7.55 18.75c-5.85,12.59 -5.44,20.24 -2.76,31.78 7.85,-2.1 9.36,-6.77 15.63,-10.68 25.36,-15.84 58.85,-13.17 86.37,-22.18 12.49,-4.08 25.39,-11.04 37.02,-17.25 31.73,-16.94 44.95,-2.96 65.21,3.78 31.92,10.61 120.82,2.57 152.22,-3.45 6.08,-1.16 14.22,-2.27 21.78,-2.89l44.21 -6.77c7.6,-0.84 12.79,-3.58 21.13,-5.19 5.85,-1.12 14.77,-1.39 21.44,-3.23l39.86 -9.48c6.91,-1.97 14.83,-1.94 22.27,-4.04l19.6 -5.07c17.66,-2.72 59.28,-16.54 81.09,-20.87l27.97 -8.22c21.13,-7.67 48.92,-13.65 68.42,-22.03 6.84,-2.94 12.2,-2.93 18.47,-6.19 8.34,-4.33 55.84,-19.29 73.39,-28.57 14.42,-7.62 29.61,-12.3 43.75,-20.4 221.66,-126.78 464.99,-410.13 668.52,-161.64 3.64,5 3.56,9.56 10.08,11.3 0,-13.42 -2.51,-13.2 -6.39,-23.22 -51.72,-133.55 -162.5,-244.12 -285.93,-284.47 -208.35,-82.76 106.36,-631.84 -407.64,-842.17 -21.16,-1.33 -53.67,-2.72 -74.25,3.03 -3.55,0.99 -5.94,1.97 -10.33,2.83 -387.83,75.27 -361.25,421.75 -385.49,714.1zm440.46 -642.69c23.15,0 34.45,5.68 51.04,19.68 192.56,188.56 270.27,285.59 146.94,544.4 -8.68,18.21 -19.56,33.72 -30.65,49.93 -1.87,2.74 -2.54,3.13 -4.41,5.46l-37.81 41.13c-24.21,22.05 -48.26,42.68 -75.24,61.27 -2.53,1.74 -4.51,2.74 -7.02,4.49l-35.22 20.69c-11.58,7.09 -19.64,9.04 -31.93,14.12 -11.75,4.86 -56.58,12.18 -66.73,10.83 -8.37,-1.12 -13.11,-0.45 -20.07,-3.09 -10.64,-4.04 -22.02,-6.56 -31.27,-13.13l-76.69 -72.97c-0.24,-0.24 -0.58,-0.58 -0.82,-0.83l-14.59 -15.01c-12.79,-12.64 -24.9,-29.34 -34.81,-44.14l-28.8 -50.14c-2.11,-4.05 -1.74,-2.45 -3.64,-7.88 -84.81,-243.11 108.16,-564.81 301.72,-564.81z"/>
 </g>
</svg>
