<?xml version="1.0" encoding="UTF-8"?>
<!DOCTYPE svg PUBLIC "-//W3C//DTD SVG 1.1//EN" "http://www.w3.org/Graphics/SVG/1.1/DTD/svg11.dtd">
<!-- Creator: CorelDRAW 2021 (64-Bit) -->
<svg xmlns="http://www.w3.org/2000/svg" xml:space="preserve" width="146.732mm" height="146.732mm" version="1.1" style="shape-rendering:geometricPrecision; text-rendering:geometricPrecision; image-rendering:optimizeQuality; fill-rule:evenodd; clip-rule:evenodd"
viewBox="0 0 2008.63 2008.63"
 xmlns:xlink="http://www.w3.org/1999/xlink"
 xmlns:xodm="http://www.corel.com/coreldraw/odm/2003">
 <defs>
  <style type="text/css">
   <![CDATA[
    .fil0 {fill:#FEF2E3}
    .fil2 {fill:#F08519}
    .fil1 {fill:#F08519}
   ]]>
  </style>
     <clipPath id="id0">
      <path d="M1061.3 769.19l815.95 0 0 812.65 -815.95 0 0 -812.65z"/>
     </clipPath>
     <clipPath id="id1">
      <path d="M128.83 159.44l1355.88 0 0 1457.9 -1355.88 0 0 -1457.9z"/>
     </clipPath>
 </defs>
 <g id="Layer_x0020_1">
  <metadata id="CorelCorpID_0Corel-Layer"/>
  <circle class="fil0" cx="1004.32" cy="1004.32" r="1004.32"/>
  <g id="_2457629458560">
   <g>
    <g style="clip-path:url(#id0)">
     <image x="1061.3" y="769.19" width="815.95" height="812.65" xlink:href="logo dm_Images\logo dm_ImgID1.png"/>
    </g>
   </g>
   <path class="fil1" d="M1412.83 822.17c170.64,0 305.03,149.58 313.5,299.32 2.1,64.72 1.25,171.15 1.25,218.66 0,58.92 -41.66,107.13 -100.58,107.13l-0 0c-58.92,0 -107.3,-48.21 -107.13,-107.13l0.6 -204.08c0.17,-56.89 -46.55,-103.44 -103.44,-103.44l-0 0c-56.89,0 -103.44,46.55 -103.44,103.44l0 204.08c0,58.92 -48.21,107.13 -107.13,107.13l-0 0c-58.92,0 -107.13,-48.21 -107.13,-107.13 0,-68.02 1.36,-130.68 1.36,-198.67 0,-156.02 141.51,-319.31 312.15,-319.31z"/>
   <g>
    <g style="clip-path:url(#id1)">
     <image x="128.83" y="159.44" width="1355.88" height="1457.9" xlink:href="logo dm_Images\logo dm_ImgID2.png"/>
    </g>
   </g>
   <path class="fil2" d="M685.96 712.3l0 -303.87c0,-56.89 46.55,-103.44 103.44,-103.44l0 0c56.89,0 103.44,46.55 103.44,103.44l0 368.34c0.2,28.04 -9,51.89 -25.25,75.13 213.17,-90.43 445.99,41.81 445.99,284.19l0 205.35c0,58.57 -47.92,106.49 -106.49,106.49l-0 0c-58.57,0 -107.76,-47.92 -107.76,-106.49 0,-62.75 2.28,-144.06 1.26,-205.35 -1.01,-60.75 -46.55,-103.44 -103.44,-103.44l-0 0c-52.61,0 -100.26,38.48 -98.98,91.42 6.71,177.95 -135.44,325.93 -313.66,325.93 -173.37,0 -313.91,-140.54 -313.91,-313.91 0,-165.36 127.86,-300.85 290.1,-313.02 71.59,-5.36 125.26,-18.99 125.26,-110.77zm-93.43 321.61l102.97 2.68 -7.54 99.5c-4.32,56.96 -46.31,103.44 -103.44,103.44 -57.13,0 -103.44,-46.31 -103.44,-103.44 0,-57.13 46.21,-103.87 111.46,-102.18z"/>
  </g>
 </g>
</svg>
