<?xml version="1.0" encoding="UTF-8"?>
<!DOCTYPE svg PUBLIC "-//W3C//DTD SVG 1.1//EN" "http://www.w3.org/Graphics/SVG/1.1/DTD/svg11.dtd">
<!-- Creator: CorelDRAW 2021 (64-Bit) -->
<svg xmlns="http://www.w3.org/2000/svg" xml:space="preserve" width="10mm" height="10mm" version="1.1" style="shape-rendering:geometricPrecision; text-rendering:geometricPrecision; image-rendering:optimizeQuality; fill-rule:evenodd; clip-rule:evenodd"
viewBox="0 0 5.94 5.94"
 xmlns:xlink="http://www.w3.org/1999/xlink"
 xmlns:xodm="http://www.corel.com/coreldraw/odm/2003">
 <defs>
  <style type="text/css">
   <![CDATA[
    .fil1 {fill:#FF7300}
    .fil0 {fill:#FEF2E3}
   ]]>
  </style>
 </defs>
 <g id="Layer_x0020_1">
  <metadata id="CorelCorpID_0Corel-Layer"/>
  <path class="fil0" d="M2.97 0c1.64,0 2.97,1.33 2.97,2.97 0,1.64 -1.33,2.97 -2.97,2.97 -1.64,0 -2.97,-1.33 -2.97,-2.97 0,-1.64 1.33,-2.97 2.97,-2.97z"/>
  <path class="fil1" d="M3.42 1.97c-0.02,0.05 -0.04,0.05 -0.09,0.1l-0.37 0.37 -0.45 -0.47c0.08,-0.04 0.16,-0.06 0.24,-0.08 0.19,-0.04 0.53,-0.03 0.67,0.07zm-0.56 1.37c0.05,0.01 0.1,0.02 0.16,0.01 0.13,-0.02 0.18,-0.08 0.25,-0.14 0.26,-0.26 0.51,-0.5 0.77,-0.76 0.11,-0.11 0.31,-0.27 0.35,-0.41 0.07,-0.26 -0.13,-0.42 -0.25,-0.51 -0.65,-0.52 -1.52,-0.51 -2.16,-0.1l-0.1 -0.11c-0.14,-0.15 -0.38,-0.15 -0.53,-0.01 -0.15,0.14 -0.15,0.38 -0.01,0.53l0.11 0.11c-0.09,0.13 -0.16,0.28 -0.21,0.44 -0.41,1.27 0.57,2.55 1.94,2.43 0.92,-0.12 1.52,-0.88 1.61,-1.44 0.04,-0.23 0.04,-0.54 0.03,-0.68 -0.07,-0.47 -0.84,-0.33 -0.74,0.09 0.01,0.13 0.15,0.81 -0.69,1.21 -0.58,0.22 -1.27,-0.12 -1.44,-0.72 -0.07,-0.26 -0.05,-0.53 0.06,-0.77l0.69 0.72c0.05,0.05 0.11,0.09 0.18,0.1z"/>
 </g>
</svg>
